<?xml version="1.0" standalone="no"?>
<!DOCTYPE svg PUBLIC "-//W3C//DTD SVG 20010904//EN"
 "http://www.w3.org/TR/2001/REC-SVG-20010904/DTD/svg10.dtd">
<svg version="1.0" xmlns="http://www.w3.org/2000/svg"
 width="306.000000pt" height="306.000000pt" viewBox="0 0 306.000000 306.000000"
 preserveAspectRatio="xMidYMid meet">
<metadata>
Created by potrace 1.11, written by Peter Selinger 2001-2013
</metadata>
<g transform="translate(0.000000,306.000000) scale(0.100000,-0.100000)"
fill="#000000" stroke="none">
<path d="M2064 3045 c-149 -33 -282 -109 -395 -225 -62 -64 -149 -195 -149
-225 0 -8 -4 -16 -9 -19 -7 -5 -21 -47 -38 -116 -24 -100 -21 -264 6 -363 12
-43 21 -81 21 -86 0 -4 -69 -43 -152 -86 -84 -43 -184 -95 -223 -115 -38 -20
-102 -54 -142 -74 l-72 -38 -48 47 c-112 108 -267 157 -418 130 -178 -32 -333
-182 -375 -364 -18 -75 -7 -201 22 -273 59 -147 184 -254 337 -289 140 -32
315 13 416 107 53 50 37 55 272 -82 120 -70 234 -136 253 -146 36 -21 102 -60
109 -64 1 -2 -4 -32 -13 -68 -27 -105 -17 -292 16 -334 6 -6 8 -12 4 -12 -9 0
39 -85 72 -130 77 -103 203 -186 321 -211 81 -17 253 -7 321 19 474 183 485
851 18 1042 -32 13 -58 29 -58 35 0 10 23 197 36 286 2 20 7 54 9 75 3 21 7
40 10 42 2 3 28 6 57 8 114 6 205 31 310 86 204 106 352 298 404 524 11 49 13
246 4 299 -31 163 -105 300 -225 416 -98 96 -196 152 -340 195 -68 21 -282 26
-361 9z m-400 -1285 c85 -92 202 -168 316 -205 30 -10 58 -20 62 -24 4 -4 3
-33 -2 -66 -5 -33 -12 -81 -15 -107 -5 -46 -8 -70 -23 -188 l-7 -55 -50 -7
c-83 -11 -107 -18 -170 -46 -60 -27 -154 -96 -188 -138 l-17 -22 -113 65
c-145 85 -177 103 -207 120 -14 8 -45 26 -71 41 -25 15 -80 47 -123 72 -75 43
-77 46 -71 75 13 58 16 81 16 145 0 36 -4 80 -10 98 -8 26 -7 34 7 41 9 5 98
50 197 102 99 51 225 116 280 145 l100 53 24 -27 c13 -15 42 -47 65 -72z"/>
</g>
</svg>
